<?xml version="1.0" encoding="utf-8"?>
<!-- Generator: Adobe Illustrator 15.1.0, SVG Export Plug-In . SVG Version: 6.00 Build 0)  -->
<!DOCTYPE svg PUBLIC "-//W3C//DTD SVG 1.1//EN" "http://www.w3.org/Graphics/SVG/1.1/DTD/svg11.dtd">
<svg version="1.1" id="Ebene_1" xmlns="http://www.w3.org/2000/svg" xmlns:xlink="http://www.w3.org/1999/xlink" x="0px" y="0px"
	 width="200px" height="200px" viewBox="0 0 200 200" enable-background="new 0 0 200 200" xml:space="preserve">
<g>
	<path fill="#FECC00" d="M81.055,158.942c0,0-45.886-31.51-51.967-50.031C8.744,46.953,81.516,36.305,95.981,65.238
		c27.619-71.809,126.59-14.247,53.072,79.607C254.357,37.815,116.611-20.926,94.599,56.117
		C42.097,8.115-11.673,76.644,22.454,120.521C35.998,137.935,75.802,157.007,81.055,158.942L81.055,158.942z"/>
	<circle fill="#B2B3B3" cx="137.317" cy="66.57" r="16.322"/>
	<path fill="#B2B3B3" d="M187.526,12.32c-7.77,59.737-48.315,111.442-107.567,64.664c59.565,51.337,44.68,80.987-16.105,113.631
		C81.886,185.331,192.76,156.325,187.526,12.32z"/>
	<circle fill="#0060AA" cx="137.009" cy="63.471" r="16.321"/>
	<path fill="#4E97D2" d="M187.216,9.221c-7.77,59.737-48.313,111.441-107.566,64.665c59.567,51.336,43.376,84.25-17.41,116.893
		C80.271,185.493,186.905,158.445,187.216,9.221z"/>
</g>
</svg>
