<?xml version="1.0" encoding="utf-8"?>
<!-- Generator: Adobe Illustrator 15.1.0, SVG Export Plug-In . SVG Version: 6.00 Build 0)  -->
<!DOCTYPE svg PUBLIC "-//W3C//DTD SVG 1.1//EN" "http://www.w3.org/Graphics/SVG/1.1/DTD/svg11.dtd">
<svg version="1.1" id="Ebene_1" xmlns="http://www.w3.org/2000/svg" xmlns:xlink="http://www.w3.org/1999/xlink" x="0px" y="0px"
	 width="300px" height="200px" viewBox="0 0 300 200" enable-background="new 0 0 300 200" xml:space="preserve">
<g>
	<g enable-background="new    ">
		<path fill="#727271" d="M62.329,15.157h4.723c6.824,0,9.526,3.902,9.526,9.431c0,6.856-4.613,9.485-10.919,9.485h-3.33V15.157z
			 M64.213,32.446h1.556c5.405,0,8.927-2.168,8.927-7.967c0-5.772-3.468-7.696-7.726-7.696h-2.757V32.446z"/>
		<path fill="#727271" d="M80.507,23.341c0-1.518,0-2.087-0.109-3.089h1.721v2.656h0.054c0.628-1.545,1.802-2.981,3.576-2.981
			c0.41,0,0.901,0.082,1.201,0.163v1.789c-0.354-0.108-0.818-0.163-1.256-0.163c-2.729,0-3.467,3.035-3.467,5.528v6.829h-1.72
			V23.341z"/>
		<path fill="#727271" d="M87.603,31.796h2.212v2.276h-2.212V31.796z"/>
		<path fill="#727271" d="M119.075,34.072v-9.187c0-1.951-0.736-3.496-2.948-3.496c-1.883,0-3.739,1.599-3.739,5.041v7.642h-1.72
			v-9.187c0-1.951-0.737-3.496-2.948-3.496c-1.884,0-3.74,1.599-3.74,5.041v7.642h-1.72V23.503c0-1.057,0-2.141-0.109-3.252h1.666
			v2.331l0.055,0.027c0.546-0.949,1.364-2.683,4.34-2.683c1.229,0,3.249,0.515,3.686,2.927h0.055
			c0.628-1.626,2.266-2.927,4.449-2.927c2.812,0,4.395,1.951,4.395,4.634v9.512H119.075z"/>
		<path fill="#727271" d="M134.332,33.639c-1.201,0.488-2.757,0.759-4.04,0.759c-4.613,0-6.333-3.089-6.333-7.235
			c0-4.228,2.348-7.236,5.869-7.236c3.931,0,5.541,3.144,5.541,6.856v0.867h-9.526c0,2.927,1.583,5.285,4.586,5.285
			c1.256,0,3.085-0.515,3.903-1.03V33.639z M133.486,26.187c0-2.412-0.983-4.797-3.549-4.797c-2.539,0-4.095,2.521-4.095,4.797
			H133.486z"/>
		<path fill="#727271" d="M149.672,34.072h-1.72v-2.195h-0.055c-0.928,1.762-2.348,2.521-4.34,2.521
			c-3.822,0-5.732-3.144-5.732-7.235c0-4.201,1.638-7.236,5.732-7.236c2.729,0,4.095,1.978,4.34,2.656h0.055v-8.834h1.72V34.072z
			 M143.83,32.934c3.058,0,4.122-3.252,4.122-5.772c0-2.521-1.064-5.772-4.122-5.772c-3.275,0-4.122,3.089-4.122,5.772
			C139.708,29.845,140.555,32.934,143.83,32.934z"/>
		<path fill="#727271" d="M154.338,31.796h2.212v2.276h-2.212V31.796z"/>
	</g>
	<g enable-background="new    ">
		<path fill="#727271" d="M41.777,46.313h2.635l9.358,23.581h-2.433l-2.534-6.317H36.912l-2.534,6.317h-2.264L41.777,46.313z
			 M42.925,48.542l-5.135,13.007h10.236L42.925,48.542z"/>
		<path fill="#727271" d="M56.882,56.718c0-1.317,0-2.669-0.135-4.054h2.061v3.074h0.067c0.709-1.554,1.993-3.479,5.574-3.479
			c4.256,0,5.878,2.838,5.878,6.622v11.013h-2.128V59.421c0-3.243-1.149-5.338-4.088-5.338c-3.885,0-5.101,3.412-5.101,6.284v9.527
			h-2.128V56.718z"/>
		<path fill="#727271" d="M89.317,69.894h-2.128v-2.736h-0.068c-1.148,2.196-2.905,3.142-5.371,3.142
			c-4.73,0-7.095-3.918-7.095-9.02c0-5.236,2.027-9.02,7.095-9.02c3.378,0,5.067,2.466,5.371,3.311h0.068V44.556h2.128V69.894z
			 M82.087,68.475c3.784,0,5.102-4.054,5.102-7.196c0-3.142-1.318-7.196-5.102-7.196c-4.054,0-5.101,3.852-5.101,7.196
			C76.986,64.624,78.034,68.475,82.087,68.475z"/>
		<path fill="#727271" d="M94.456,56.516c0-1.892,0-2.602-0.135-3.852h2.128v3.311h0.067c0.777-1.926,2.23-3.716,4.426-3.716
			c0.507,0,1.115,0.102,1.486,0.203v2.23c-0.439-0.135-1.014-0.203-1.554-0.203c-3.378,0-4.29,3.783-4.29,6.892v8.513h-2.128V56.516
			z"/>
		<path fill="#727271" d="M116.653,69.353c-1.486,0.608-3.412,0.946-5,0.946c-5.709,0-7.837-3.851-7.837-9.02
			c0-5.27,2.905-9.02,7.263-9.02c4.865,0,6.858,3.919,6.858,8.547v1.081h-11.79c0,3.648,1.959,6.587,5.675,6.587
			c1.554,0,3.817-0.642,4.831-1.284V69.353z M115.606,60.063c0-3.006-1.216-5.979-4.392-5.979c-3.142,0-5.067,3.142-5.067,5.979
			H115.606z"/>
		<path fill="#727271" d="M131.893,67.124h-0.068c-0.946,2.061-3.344,3.175-5.473,3.175c-4.898,0-5.676-3.311-5.676-4.865
			c0-5.777,6.149-6.047,10.608-6.047h0.406v-0.878c0-2.939-1.047-4.426-3.919-4.426c-1.791,0-3.479,0.406-5.067,1.419v-2.061
			c1.317-0.642,3.547-1.183,5.067-1.183c4.257,0,6.047,1.926,6.047,6.419v7.601c0,1.385,0,2.432,0.169,3.615h-2.094V67.124z
			 M131.69,61.211h-0.608c-3.682,0-8.074,0.372-8.074,4.155c0,2.263,1.622,3.108,3.581,3.108c5,0,5.102-4.358,5.102-6.216V61.211z"
			/>
		<path fill="#727271" d="M148.519,46.313h3.615l8.615,20.743l8.648-20.743h3.345v23.581h-2.331v-21.25h-0.068l-8.58,21.25h-1.993
			l-8.852-21.25h-0.067v21.25h-2.331V46.313z"/>
		<path fill="#727271" d="M188.22,67.124h-0.067c-0.946,2.061-3.345,3.175-5.473,3.175c-4.898,0-5.676-3.311-5.676-4.865
			c0-5.777,6.148-6.047,10.607-6.047h0.405v-0.878c0-2.939-1.047-4.426-3.919-4.426c-1.79,0-3.479,0.406-5.066,1.419v-2.061
			c1.317-0.642,3.547-1.183,5.066-1.183c4.257,0,6.048,1.926,6.048,6.419v7.601c0,1.385,0,2.432,0.169,3.615h-2.095V67.124z
			 M188.017,61.211h-0.607c-3.683,0-8.074,0.372-8.074,4.155c0,2.263,1.621,3.108,3.581,3.108c5,0,5.101-4.358,5.101-6.216V61.211z"
			/>
		<path fill="#727271" d="M193.898,67.394c1.283,0.642,2.838,1.081,4.493,1.081c2.026,0,3.817-1.115,3.817-3.074
			c0-4.088-8.277-3.446-8.277-8.446c0-3.412,2.771-4.696,5.608-4.696c0.912,0,2.736,0.203,4.257,0.777l-0.203,1.858
			c-1.114-0.507-2.635-0.811-3.817-0.811c-2.196,0-3.716,0.676-3.716,2.872c0,3.209,8.479,2.804,8.479,8.446
			c0,3.648-3.412,4.898-6.014,4.898c-1.655,0-3.311-0.203-4.831-0.811L193.898,67.394z"/>
		<path fill="#727271" d="M219.576,54.961c-1.148-0.507-2.534-0.878-3.683-0.878c-4.155,0-6.486,3.007-6.486,7.196
			c0,3.919,2.365,7.196,6.25,7.196c1.352,0,2.602-0.304,3.885-0.777l0.203,1.993c-1.453,0.507-2.804,0.608-4.426,0.608
			c-5.54,0-8.243-4.223-8.243-9.02c0-5.304,3.412-9.02,8.514-9.02c2.061,0,3.547,0.473,4.155,0.676L219.576,54.961z"/>
		<path fill="#727271" d="M223.362,44.556h2.128V55.57h0.067c0.913-1.892,2.838-3.311,5.372-3.311c4.628,0,5.878,3.074,5.878,7.331
			v10.304h-2.128v-10.27c0-2.973-0.574-5.541-4.088-5.541c-3.784,0-5.102,3.581-5.102,6.588v9.223h-2.128V44.556z"/>
		<path fill="#727271" d="M244.277,48.07h-2.128v-2.838h2.128V48.07z M242.149,52.664h2.128v17.229h-2.128V52.664z"/>
		<path fill="#727271" d="M257.083,54.489h-3.919v11.148c0,1.554,0.574,2.838,2.297,2.838c0.811,0,1.352-0.169,1.959-0.405
			l0.136,1.757c-0.507,0.203-1.554,0.473-2.602,0.473c-3.783,0-3.919-2.601-3.919-5.743V54.489h-3.378v-1.825h3.378v-4.155
			l2.129-0.743v4.898h3.919V54.489z"/>
		<path fill="#727271" d="M270.8,67.124h-0.067c-0.946,2.061-3.345,3.175-5.474,3.175c-4.898,0-5.675-3.311-5.675-4.865
			c0-5.777,6.148-6.047,10.607-6.047h0.405v-0.878c0-2.939-1.047-4.426-3.919-4.426c-1.79,0-3.479,0.406-5.067,1.419v-2.061
			c1.318-0.642,3.548-1.183,5.067-1.183c4.257,0,6.048,1.926,6.048,6.419v7.601c0,1.385,0,2.432,0.169,3.615H270.8V67.124z
			 M270.597,61.211h-0.607c-3.683,0-8.074,0.372-8.074,4.155c0,2.263,1.621,3.108,3.581,3.108c5,0,5.101-4.358,5.101-6.216V61.211z"
			/>
	</g>
	<g enable-background="new    ">
		<path fill="#727271" d="M89.516,97.852c1.487-2.128,2.027-4.628,2.027-7.162h2.027c0,3.041-0.878,6.148-2.635,8.513l4.02,4.359
			h-2.973l-2.5-2.636c-1.926,2.162-4.392,3.108-7.162,3.108c-3.986,0-7.736-2.027-7.736-6.588c0-3.615,2.433-5.642,5.574-6.858
			c-1.453-1.656-3.074-3.446-3.074-5.811c0-3.378,3.243-5.135,6.352-5.135c2.804,0,5.54,1.554,5.54,4.865
			c0,3.682-2.838,5-5.675,6.419L89.516,97.852z M81.341,91.906c-2.229,0.878-4.426,2.838-4.426,5.439
			c0,3.209,2.635,4.865,5.473,4.865c2.128,0,4.459-1.081,5.811-2.737L81.341,91.906z M82.084,89.71
			c2.061-0.98,4.561-2.061,4.561-4.831c0-2.229-1.351-3.412-3.344-3.412s-3.885,1.148-3.885,3.446
			C79.415,86.771,80.8,88.291,82.084,89.71z"/>
		<path fill="#727271" d="M108.035,80.048h2.331v10.574l10.608-10.574h3.04l-11.418,11.115l12.398,12.466h-3.209l-11.418-11.791
			v11.791h-2.331V80.048z"/>
		<path fill="#727271" d="M134.862,85.994c5.574,0,8.041,4.324,8.041,9.02s-2.466,9.021-8.041,9.021s-8.041-4.325-8.041-9.021
			S129.288,85.994,134.862,85.994z M134.862,102.21c3.716,0,5.709-3.21,5.709-7.196s-1.993-7.196-5.709-7.196
			s-5.709,3.209-5.709,7.196S131.146,102.21,134.862,102.21z"/>
		<path fill="#727271" d="M146.926,78.291h2.128v25.338h-2.128V78.291z"/>
		<path fill="#727271" d="M154.427,78.291h2.128v25.338h-2.128V78.291z"/>
		<path fill="#727271" d="M173.48,103.088c-1.486,0.608-3.412,0.946-5,0.946c-5.709,0-7.837-3.852-7.837-9.021
			c0-5.27,2.905-9.02,7.263-9.02c4.865,0,6.858,3.919,6.858,8.547v1.081h-11.79c0,3.648,1.959,6.588,5.675,6.588
			c1.555,0,3.817-0.642,4.831-1.284V103.088z M172.434,93.797c0-3.006-1.217-5.979-4.392-5.979c-3.143,0-5.067,3.142-5.067,5.979
			H172.434z"/>
		<path fill="#727271" d="M192.47,102.21c0,4.797-2.162,8.716-8.074,8.716c-2.264,0-4.324-0.642-5.202-0.912l0.169-2.128
			c1.317,0.675,3.209,1.216,5.066,1.216c5.474,0,5.946-3.986,5.946-8.852h-0.067c-1.148,2.5-3.041,3.379-5.236,3.379
			c-5.507,0-7.264-4.798-7.264-8.615c0-5.236,2.027-9.02,7.095-9.02c2.297,0,3.783,0.304,5.371,2.365h0.067v-1.959h2.129V102.21z
			 M185.104,101.805c3.852,0,5.236-3.649,5.236-6.791c0-4.155-1.216-7.196-5.101-7.196c-4.054,0-5.102,3.852-5.102,7.196
			C180.139,98.392,181.49,101.805,185.104,101.805z"/>
		<path fill="#727271" d="M209.162,103.088c-1.486,0.608-3.412,0.946-5,0.946c-5.709,0-7.838-3.852-7.838-9.021
			c0-5.27,2.905-9.02,7.264-9.02c4.864,0,6.858,3.919,6.858,8.547v1.081h-11.791c0,3.648,1.96,6.588,5.676,6.588
			c1.554,0,3.817-0.642,4.831-1.284V103.088z M208.115,93.797c0-3.006-1.217-5.979-4.393-5.979c-3.142,0-5.067,3.142-5.067,5.979
			H208.115z"/>
		<path fill="#727271" d="M214.503,90.453c0-1.317,0-2.669-0.135-4.054h2.061v3.074h0.067c0.709-1.554,1.993-3.479,5.574-3.479
			c4.257,0,5.878,2.838,5.878,6.622v11.014h-2.128V93.156c0-3.243-1.148-5.338-4.088-5.338c-3.885,0-5.102,3.412-5.102,6.284v9.527
			h-2.128V90.453z"/>
	</g>
	<g enable-background="new    ">
		<path fill="#727271" d="M47.166,132.35h1.813v8.119h9.275v-8.119h1.813v18.34h-1.813v-8.645h-9.275v8.645h-1.813V132.35z"/>
		<path fill="#727271" d="M70.232,132.35h2.049l7.278,18.34h-1.892l-1.971-4.913h-9.249l-1.971,4.913h-1.76L70.232,132.35z
			 M71.125,134.083l-3.994,10.116h7.961L71.125,134.083z"/>
		<path fill="#727271" d="M95.32,144.278c0,5.413-3.968,6.727-6.648,6.727s-6.647-1.313-6.647-6.727V132.35h1.813v11.929
			c0,2.995,1.655,5.15,4.834,5.15c3.18,0,4.835-2.155,4.835-5.15V132.35h1.813V144.278z"/>
		<path fill="#727271" d="M99.178,148.352c1.078,0.683,2.339,1.077,4.047,1.077c2.259,0,4.125-1.156,4.125-3.758
			c0-3.6-8.408-4.046-8.408-8.854c0-2.943,2.575-4.782,5.807-4.782c0.893,0,2.338,0.131,3.6,0.604l-0.289,1.655
			c-0.814-0.447-2.102-0.684-3.337-0.684c-1.892,0-3.968,0.788-3.968,3.153c0,3.679,8.408,3.705,8.408,9.065
			c0,3.704-3.179,5.176-6.017,5.176c-1.787,0-3.179-0.368-4.151-0.788L99.178,148.352z"/>
		<path fill="#727271" d="M118.409,132.35h2.049l7.278,18.34h-1.892l-1.971-4.913h-9.249l-1.971,4.913h-1.76L118.409,132.35z
			 M119.303,134.083l-3.994,10.116h7.961L119.303,134.083z"/>
		<path fill="#727271" d="M130.387,132.35h4.729c3.258,0,5.386,1.393,5.386,4.756c0,2.364-1.813,3.941-4.073,4.23v0.052
			c1.472,0.185,1.787,0.973,2.365,2.208l3.126,7.094h-1.997l-2.654-6.201c-1.051-2.364-1.839-2.443-3.573-2.443H132.2v8.645h-1.813
			V132.35z M132.2,140.469h1.918c2.128,0,4.572-0.814,4.572-3.363c0-2.996-2.128-3.18-4.625-3.18H132.2V140.469z"/>
		<path fill="#727271" d="M143.231,149.113l9.564-15.188h-9.328v-1.576h11.246v1.576l-9.512,15.188h9.827v1.576h-11.798V149.113z"/>
		<path fill="#727271" d="M161.49,133.926h-5.413v-1.576h12.639v1.576h-5.413v16.764h-1.813V133.926z"/>
		<path fill="#727271" d="M171.209,132.35h4.52c3.441,0,5.675,1.733,5.675,5.202c0,3.416-2.574,5.203-5.859,5.203h-2.522v7.935
			h-1.813V132.35z M173.021,141.178h1.262c2.732,0,5.308-0.315,5.308-3.626c0-2.313-1.314-3.626-3.626-3.626h-2.943V141.178z"/>
		<path fill="#727271" d="M184.396,132.35h4.729c3.259,0,5.387,1.393,5.387,4.756c0,2.364-1.813,3.941-4.072,4.23v0.052
			c1.471,0.185,1.786,0.973,2.364,2.208l3.127,7.094h-1.997l-2.653-6.201c-1.052-2.364-1.84-2.443-3.574-2.443h-1.497v8.645h-1.813
			V132.35z M186.209,140.469h1.918c2.128,0,4.572-0.814,4.572-3.363c0-2.996-2.129-3.18-4.625-3.18h-1.865V140.469z"/>
		<path fill="#727271" d="M204.546,132.35h2.05l7.278,18.34h-1.893l-1.971-4.913h-9.249l-1.97,4.913h-1.761L204.546,132.35z
			 M205.439,134.083l-3.994,10.116h7.962L205.439,134.083z"/>
		<path fill="#727271" d="M221.227,141.047l-6.148-8.697h2.128l5.15,7.409l5.202-7.409h2.023l-6.175,8.697l6.674,9.643h-2.207
			l-5.597-8.355l-5.807,8.355h-2.076L221.227,141.047z"/>
		<path fill="#727271" d="M232.284,132.35h1.813v18.34h-1.813V132.35z"/>
		<path fill="#727271" d="M237.854,148.352c1.077,0.683,2.338,1.077,4.046,1.077c2.26,0,4.126-1.156,4.126-3.758
			c0-3.6-8.408-4.046-8.408-8.854c0-2.943,2.574-4.782,5.807-4.782c0.894,0,2.339,0.131,3.6,0.604l-0.289,1.655
			c-0.814-0.447-2.102-0.684-3.337-0.684c-1.892,0-3.968,0.788-3.968,3.153c0,3.679,8.408,3.705,8.408,9.065
			c0,3.704-3.18,5.176-6.017,5.176c-1.787,0-3.18-0.368-4.152-0.788L237.854,148.352z"/>
	</g>
	<g enable-background="new    ">
		<path fill="#727271" d="M59.013,178.85c1.078,0.684,2.339,1.078,4.047,1.078c2.259,0,4.125-1.156,4.125-3.758
			c0-3.6-8.408-4.047-8.408-8.855c0-2.942,2.575-4.781,5.807-4.781c0.893,0,2.338,0.131,3.6,0.604l-0.289,1.656
			c-0.814-0.447-2.102-0.684-3.337-0.684c-1.892,0-3.968,0.788-3.968,3.153c0,3.679,8.408,3.704,8.408,9.064
			c0,3.705-3.179,5.177-6.017,5.177c-1.787,0-3.179-0.368-4.151-0.788L59.013,178.85z"/>
		<path fill="#727271" d="M85.233,164.897c-1.156-0.604-2.812-0.788-4.099-0.788c-4.756,0-7.436,3.363-7.436,7.909
			c0,4.624,2.602,7.909,7.436,7.909c1.209,0,3.048-0.158,4.099-0.789l0.105,1.577c-0.999,0.604-3.048,0.788-4.204,0.788
			c-5.78,0-9.249-3.811-9.249-9.485c0-5.57,3.574-9.485,9.249-9.485c1.078,0,3.258,0.184,4.204,0.683L85.233,164.897z"/>
		<path fill="#727271" d="M90.221,162.848h1.813v8.119h9.275v-8.119h1.813v18.341h-1.813v-8.645h-9.275v8.645h-1.813V162.848z"/>
		<path fill="#727271" d="M113.287,162.848h2.049l7.278,18.341h-1.892l-1.971-4.913h-9.249l-1.971,4.913h-1.76L113.287,162.848z
			 M114.18,164.582l-3.994,10.116h7.961L114.18,164.582z"/>
		<path fill="#727271" d="M138.375,174.777c0,5.413-3.968,6.727-6.648,6.727c-2.68,0-6.647-1.313-6.647-6.727v-11.93h1.813v11.93
			c0,2.995,1.655,5.15,4.834,5.15c3.18,0,4.835-2.155,4.835-5.15v-11.93h1.813V174.777z"/>
		<path fill="#727271" d="M142.733,162.848h8.986v1.577h-7.173v6.542h6.805v1.577h-6.805v7.068h7.488v1.576h-9.301V162.848z"/>
		<path fill="#727271" d="M155.631,162.848h2.285l9.328,16.134h0.053v-16.134h1.813v18.341h-2.443l-9.17-15.818h-0.053v15.818
			h-1.813V162.848z"/>
		<path fill="#727271" d="M173.23,162.848h4.362c2.995,0,5.807,0.999,5.807,4.52c0,2.339-1.077,3.731-3.337,4.178v0.053
			c2.313,0.421,3.889,1.944,3.889,4.362c0,3.993-3.258,5.229-7.068,5.229h-3.652V162.848z M175.044,179.612h1.892
			c2.443,0,5.202-0.657,5.202-3.574c0-3.258-2.811-3.6-5.491-3.6h-1.603V179.612z M175.097,170.862h2.022
			c1.919,0,4.467-0.499,4.467-3.416c0-2.653-2.443-3.021-3.993-3.021h-2.496V170.862z"/>
		<path fill="#727271" d="M201.158,174.777c0,5.413-3.968,6.727-6.647,6.727c-2.681,0-6.648-1.313-6.648-6.727v-11.93h1.813v11.93
			c0,2.995,1.655,5.15,4.835,5.15c3.179,0,4.834-2.155,4.834-5.15v-11.93h1.813V174.777z"/>
		<path fill="#727271" d="M205.568,162.848h4.729c3.258,0,5.387,1.393,5.387,4.756c0,2.365-1.813,3.941-4.073,4.23v0.053
			c1.472,0.185,1.787,0.973,2.365,2.207l3.127,7.095h-1.997l-2.654-6.201c-1.051-2.364-1.839-2.443-3.573-2.443h-1.498v8.645h-1.813
			V162.848z M207.381,170.967h1.918c2.129,0,4.572-0.814,4.572-3.363c0-2.995-2.128-3.179-4.624-3.179h-1.866V170.967z"/>
		<path fill="#727271" d="M232.681,172.833h-4.257v-1.577h6.07v9.118c-1.866,0.814-3.679,1.13-5.702,1.13
			c-5.78,0-9.249-3.811-9.249-9.485c0-5.57,3.573-9.485,9.249-9.485c1.393,0,3.679,0.236,4.913,0.866l-0.21,1.682
			c-1.419-0.788-3.101-0.972-4.703-0.972c-4.756,0-7.436,3.363-7.436,7.909c0,4.624,2.601,7.909,7.436,7.909
			c1.13,0,3.021-0.132,3.889-0.657V172.833z"/>
	</g>
	<g>
		<polygon fill="#2B2A29" points="280.533,118.959 18.348,118.959 18.348,117.543 280.533,117.543 		"/>
	</g>
</g>
</svg>
